<?xml version="1.0" standalone="no"?>
<!DOCTYPE svg PUBLIC "-//W3C//DTD SVG 20010904//EN"
 "http://www.w3.org/TR/2001/REC-SVG-20010904/DTD/svg10.dtd">
<svg version="1.0" xmlns="http://www.w3.org/2000/svg"
 width="2000.000000pt" height="2000.000000pt" viewBox="0 0 2000.000000 2000.000000"
 preserveAspectRatio="xMidYMid meet">

<g transform="translate(0.000000,2000.000000) scale(0.100000,-0.100000)"
fill="#000000" stroke="none">
<path d="M6496 17733 c139 -140 201 -336 211 -670 9 -295 -11 -480 -111 -1023
-71 -388 -80 -462 -80 -685 -1 -220 8 -294 56 -445 80 -251 236 -469 481 -674
37 -31 72 -54 76 -52 10 7 20 151 31 466 20 547 -28 1141 -135 1675 -46 225
-129 553 -190 750 -64 202 -64 207 0 80 137 -274 261 -601 304 -800 185 -864
209 -1748 75 -2720 -55 -397 -113 -714 -254 -1390 -212 -1014 -270 -1345 -320
-1827 -56 -552 -46 -1137 31 -1658 59 -403 193 -925 325 -1269 25 -63 43 -116
41 -118 -3 -2 -38 70 -80 159 -253 545 -390 1025 -466 1633 -28 224 -36 317
-71 760 -50 636 -88 933 -159 1230 -30 122 -31 133 -20 208 15 103 6 388 -16
484 -115 518 -500 924 -1000 1059 -115 31 -118 30 -61 -7 94 -63 175 -211 227
-416 34 -134 53 -273 74 -528 28 -345 66 -512 147 -650 78 -132 228 -264 385
-337 35 -17 66 -28 69 -25 7 7 -30 186 -78 371 -111 439 -295 866 -538 1253
-33 53 -59 98 -56 100 6 6 163 -188 238 -294 157 -221 354 -703 457 -1118 93
-370 141 -727 176 -1295 8 -135 22 -362 30 -505 36 -589 92 -956 206 -1334
180 -596 467 -1077 888 -1484 74 -71 162 -170 213 -237 309 -414 729 -803
1160 -1076 592 -375 1221 -597 1926 -681 184 -22 734 -25 917 -5 428 46 836
146 1227 302 129 51 394 174 333 154 -11 -4 -84 -28 -162 -55 -325 -111 -663
-180 -1028 -210 -181 -15 -626 -6 -805 16 -1325 162 -2484 911 -3160 2042
-291 485 -482 1015 -565 1563 -47 306 -59 731 -30 1036 42 439 154 883 327
1289 393 924 1114 1690 2014 2139 424 211 805 328 1286 392 159 21 590 29 772
15 550 -45 1091 -205 1569 -467 153 -84 433 -268 556 -368 121 -97 341 -295
341 -307 0 -5 -51 33 -114 85 -847 696 -1974 1011 -3061 855 -220 -32 -583
-114 -608 -138 -11 -11 116 -174 223 -285 352 -363 771 -546 1400 -610 269
-28 612 -39 1265 -41 559 -1 665 -4 755 -19 191 -31 366 -84 512 -157 43 -21
78 -35 78 -32 0 3 -43 57 -96 122 -427 519 -858 881 -1357 1141 -353 184 -744
316 -1228 415 -505 103 -1108 112 -1619 25 -1299 -224 -2420 -990 -3095 -2115
-94 -155 -236 -438 -296 -589 -24 -60 -45 -102 -47 -93 -4 21 42 391 78 627
40 255 84 502 181 1015 195 1024 262 1520 276 2045 l6 234 35 74 c79 172 143
389 179 607 14 85 18 164 18 350 -1 263 -14 371 -74 601 -160 610 -587 1144
-1156 1445 l-100 53 61 -61z"/>
<path d="M10421 11819 c-54 -6 -91 -15 -103 -25 -13 -13 -29 -15 -66 -10 -27
3 -64 3 -83 -1 -32 -6 -33 -7 -9 -13 63 -15 7 -60 -76 -60 -37 0 -59 -6 -78
-21 -15 -11 -33 -18 -41 -15 -8 3 -56 -5 -106 -18 -65 -17 -98 -31 -115 -49
-13 -14 -51 -36 -84 -48 -71 -26 -96 -47 -47 -42 26 4 14 -7 -71 -62 -57 -37
-101 -69 -98 -72 2 -2 26 -8 53 -12 l48 -7 -37 -19 c-42 -21 -45 -27 -24 -44
12 -10 40 -7 132 14 64 14 123 24 130 21 21 -8 82 -107 94 -155 9 -32 14 -41
23 -32 27 27 32 3 11 -52 -4 -11 5 -19 30 -28 34 -12 35 -14 30 -53 -4 -27
-15 -49 -33 -63 l-26 -23 23 0 24 0 -21 -34 c-25 -39 -27 -76 -6 -76 10 0 15
-11 15 -35 0 -48 54 -106 126 -135 65 -27 100 -18 110 27 26 121 63 174 148
214 33 16 67 29 73 29 7 0 24 18 38 40 14 22 37 47 52 57 15 10 99 37 188 60
130 34 152 42 115 42 -25 1 -52 6 -60 11 -13 8 -13 14 3 42 16 27 16 34 4 43
-7 5 -16 21 -19 35 -3 14 -9 33 -13 43 -5 13 -2 17 15 17 12 0 35 8 50 17 28
16 51 14 119 -14 9 -4 11 0 6 16 -4 14 -2 21 7 21 8 0 23 6 34 14 18 14 17 15
-20 31 -28 12 -36 19 -27 28 8 8 7 15 -5 28 -15 17 -13 18 23 24 68 12 69 13
32 51 l-34 35 34 31 c32 28 33 32 17 43 -21 16 -13 22 59 40 31 8 77 26 103
40 l47 26 -65 -4 c-36 -3 -97 -10 -137 -18 -59 -11 -78 -11 -111 0 -37 12 -52
11 -167 -16 -69 -17 -123 -27 -118 -22 4 4 73 30 153 58 126 43 139 50 103 50
-26 1 -45 7 -50 16 -7 13 -25 12 -137 -5 -71 -11 -133 -20 -138 -20 -17 0 4
21 35 34 37 16 33 17 -82 5z"/>
<path d="M9445 11677 c-117 -20 -169 -38 -207 -73 -21 -19 -43 -34 -49 -34 -6
0 -45 -17 -88 -38 l-77 -39 28 -12 c31 -14 80 -7 197 30 35 10 66 17 68 15 10
-10 -65 -51 -130 -71 -81 -26 -92 -45 -34 -59 46 -12 47 -21 2 -36 -43 -14
-72 0 -87 41 -9 27 -13 29 -62 29 -46 0 -55 -3 -74 -29 l-22 -30 30 -6 c35 -8
36 -12 14 -37 -28 -31 9 -34 59 -5 l42 25 28 -20 c31 -23 27 -41 -9 -32 -16 4
-24 2 -24 -6 0 -7 -8 -19 -17 -27 -16 -13 -11 -14 42 -9 63 6 195 44 159 45
-12 1 -26 7 -32 14 -8 10 4 21 54 47 38 21 62 40 59 47 -6 18 60 66 92 66 23
0 106 44 178 94 18 12 17 13 -12 7 -50 -10 -40 2 35 40 37 18 75 43 85 54 17
19 17 19 -90 19 -59 -1 -130 -5 -158 -10z"/>
<path d="M14367 11197 c-26 -20 -32 -20 -135 -9 -184 20 -225 15 -202 -28 6
-12 10 -24 7 -26 -2 -2 -28 2 -58 10 -76 19 -84 12 -44 -40 66 -87 58 -121
-13 -52 -34 33 -58 47 -86 51 -36 6 -37 5 -22 -12 31 -34 16 -32 -29 5 l-45
36 1 -28 c1 -78 13 -103 61 -133 26 -16 55 -45 64 -63 l17 -33 -48 40 c-45 36
-49 38 -59 21 -21 -36 -67 -85 -86 -91 -24 -7 -56 9 -70 35 -10 18 -8 19 15
10 53 -20 55 -17 54 83 -1 145 -9 180 -43 192 -26 9 -31 6 -62 -30 -19 -22
-34 -43 -34 -47 0 -4 14 -30 30 -56 17 -27 30 -52 30 -55 0 -3 -42 9 -94 26
l-93 31 -28 -22 c-33 -26 -51 -28 -63 -6 -8 14 -13 14 -50 -5 -50 -25 -60 -26
-84 -4 -17 15 -22 15 -76 -1 -31 -10 -75 -29 -97 -42 -52 -30 -83 -24 -77 15
3 22 -2 29 -24 39 l-27 13 7 -55 6 -54 -48 -7 c-38 -5 -51 -12 -64 -35 -15
-27 -19 -28 -50 -20 -46 14 -50 13 -38 -10 20 -37 -5 -20 -74 49 l-69 69 74 6
c41 3 94 7 118 9 l43 2 -109 57 c-89 47 -122 59 -174 64 -73 7 -76 8 -60 28
16 19 7 23 -78 37 -70 10 -74 10 -176 -25 -57 -20 -112 -36 -122 -36 -11 0
-25 -15 -35 -38 -12 -25 -45 -58 -103 -101 l-85 -65 6 -49 7 -50 -41 5 c-39 6
-44 3 -81 -37 -45 -49 -56 -80 -47 -128 11 -57 15 -58 86 -37 36 11 68 20 71
20 3 0 25 -40 47 -90 l41 -89 53 18 c48 16 53 21 63 57 5 22 20 54 32 71 22
29 22 33 8 73 -29 82 -16 118 55 155 19 10 36 30 47 56 9 23 25 44 38 49 27
10 65 2 65 -14 0 -6 -16 -60 -35 -121 -19 -60 -35 -116 -35 -122 0 -9 16 -13
48 -13 26 0 78 -3 116 -7 61 -5 67 -8 51 -20 -11 -7 -39 -13 -64 -13 -25 0
-57 -3 -69 -7 -23 -5 -24 -9 -17 -59 l6 -54 -45 0 c-45 0 -46 0 -46 -33 0 -46
-34 -77 -86 -77 -21 -1 -63 -9 -92 -19 -37 -13 -62 -16 -80 -10 -15 4 -47 12
-72 16 -41 7 -45 11 -56 48 l-12 40 -1 -57 -1 -57 -42 -11 c-61 -15 -108 -38
-114 -55 -8 -19 -187 -138 -242 -160 -23 -10 -42 -19 -42 -21 0 -3 20 -30 45
-62 34 -43 45 -66 45 -93 0 -59 -20 -69 -138 -69 l-102 0 -7 -27 c-4 -16 -8
-70 -8 -122 l0 -93 64 -23 64 -24 53 20 c56 21 104 67 104 99 0 12 22 36 55
60 32 24 55 48 55 59 0 27 20 39 97 61 102 30 108 28 188 -47 40 -38 87 -77
105 -88 21 -12 38 -33 45 -55 l12 -35 7 43 c4 23 12 40 17 36 5 -3 9 -3 9 -1
0 3 -26 24 -57 48 -72 56 -113 112 -113 156 0 18 4 33 10 33 15 0 132 -85 168
-123 18 -19 52 -67 75 -108 27 -48 49 -75 62 -77 44 -7 47 -10 29 -37 -19 -29
-13 -31 21 -9 l24 16 -20 40 c-12 23 -17 44 -12 49 5 5 39 16 75 25 l67 17 21
71 c54 177 107 215 192 139 32 -29 38 -33 29 -14 -16 29 -8 36 52 49 l48 10
-6 -37 c-5 -34 -2 -39 49 -89 49 -47 76 -96 62 -110 -3 -3 -56 0 -118 6 -135
13 -198 5 -284 -38 l-61 -30 8 -56 c4 -31 9 -58 11 -60 3 -2 64 -7 136 -10 75
-4 132 -11 132 -17 0 -5 -14 -64 -32 -129 l-32 -120 -110 5 c-85 4 -127 11
-181 31 -98 36 -116 34 -150 -14 -15 -22 -29 -40 -31 -40 -3 0 -72 34 -154 75
l-150 75 0 60 c0 33 -4 60 -8 60 -93 0 -292 -26 -357 -46 -57 -19 -93 -24
-126 -21 l-45 6 -57 -66 c-42 -49 -59 -78 -66 -115 -15 -66 -35 -102 -74 -132
-18 -14 -59 -64 -92 -111 l-59 -86 -7 -102 c-4 -56 -11 -137 -15 -179 l-7 -77
59 -101 c32 -55 73 -124 89 -153 42 -73 110 -117 179 -117 72 0 212 18 270 35
101 30 97 32 222 -117 63 -75 64 -78 64 -135 0 -50 5 -65 35 -107 19 -27 35
-54 35 -59 0 -5 14 -39 30 -77 37 -85 38 -141 5 -235 -31 -88 -31 -119 -1
-208 14 -40 32 -110 40 -157 11 -59 31 -117 67 -191 41 -85 50 -112 45 -137
l-7 -30 70 -12 c82 -14 136 -7 207 25 89 40 168 139 189 235 4 20 26 55 51 82
l43 46 -6 70 c-6 68 -5 72 23 99 16 15 50 42 76 60 26 17 55 47 64 65 22 41
22 129 0 218 -39 160 -9 238 149 395 109 108 163 195 208 334 l23 69 -44 6
c-25 3 -80 6 -122 6 l-78 0 -63 90 c-91 128 -123 190 -138 264 -7 36 -38 117
-72 186 -32 67 -59 129 -59 137 0 23 70 7 96 -22 12 -13 32 -53 44 -90 14 -42
30 -71 45 -81 17 -11 26 -29 31 -62 9 -66 19 -89 58 -134 32 -37 42 -62 66
-175 l12 -52 81 35 c258 110 362 192 396 311 8 26 3 35 -43 88 l-52 58 -63
-36 c-34 -21 -65 -37 -70 -37 -7 0 -111 227 -111 243 0 4 13 7 29 7 23 0 39
-11 71 -49 44 -52 80 -71 135 -71 18 0 50 -12 76 -29 36 -24 60 -31 124 -37
84 -7 118 -19 148 -52 10 -11 32 -26 48 -32 23 -10 29 -19 29 -43 0 -29 0 -30
20 -12 11 10 22 16 24 14 2 -2 16 -70 30 -151 15 -81 36 -178 47 -215 21 -67
57 -143 68 -143 6 0 45 133 71 237 7 29 25 56 60 90 28 26 67 73 88 103 22 32
52 62 73 71 72 34 72 34 107 -31 21 -38 36 -80 39 -115 l6 -54 29 15 c16 8 32
12 37 10 13 -8 34 -191 28 -239 -3 -23 -2 -58 3 -77 5 -19 16 -64 25 -100 9
-36 23 -75 31 -87 47 -72 37 40 -13 145 -30 64 -35 82 -31 128 3 30 9 59 14
64 18 18 78 -22 101 -68 l21 -42 39 46 40 46 -28 121 c-16 67 -31 131 -34 142
-3 11 3 34 15 53 16 25 26 32 52 32 44 0 127 49 172 101 57 67 77 132 69 231
-3 46 -12 98 -20 117 -13 32 -12 37 13 75 15 22 23 41 18 43 -21 7 -74 43 -73
50 0 5 16 21 35 36 l34 29 0 -27 c0 -24 3 -26 29 -20 31 7 34 2 68 -132 6 -24
11 -30 22 -24 12 8 12 21 -3 91 l-18 83 22 41 c31 56 49 76 65 70 31 -12 75
134 75 249 0 82 -12 127 -33 127 -7 0 -24 11 -36 24 l-23 24 42 72 c33 56 45
70 58 64 10 -3 28 -9 42 -12 14 -2 32 -11 42 -19 14 -13 17 -11 28 22 13 40
31 42 41 4 l6 -24 6 25 c6 27 0 -66 -9 -144 -7 -51 14 -173 27 -159 4 4 12 51
17 103 6 52 18 110 27 128 13 25 14 39 7 61 -6 16 -8 31 -6 34 3 3 -9 42 -26
87 -23 57 -45 96 -76 128 -25 26 -54 64 -65 84 -10 21 -33 44 -49 53 -16 8
-40 33 -52 55 -17 29 -28 38 -40 34 -12 -3 -18 0 -18 10 0 8 -12 24 -27 36
l-28 22 -3 -21 c-4 -23 -20 -22 -73 5 -16 8 -30 9 -35 4 -11 -11 -84 70 -84
94 0 9 -28 24 -79 41 -44 14 -85 33 -92 41 -6 8 -29 17 -50 20 -29 5 -40 13
-50 36 -13 31 -46 36 -41 5 2 -13 -4 -17 -27 -17 -58 0 -65 10 -27 36 19 13
44 24 55 24 15 0 21 6 21 24 0 19 -10 28 -49 45 -27 11 -55 21 -62 21 -7 0
-26 11 -43 24 l-31 23 -28 -20z"/>
<path d="M9100 11067 c-31 -50 -36 -55 -47 -41 -7 9 -10 21 -7 26 8 13 -4 58
-16 58 -5 0 -24 -13 -41 -28 -30 -27 -31 -31 -25 -76 l7 -47 67 8 c77 9 203 7
247 -5 18 -5 31 -16 34 -28 2 -10 12 -31 22 -46 24 -34 24 -48 -1 -48 -12 0
-26 -12 -35 -30 -10 -20 -34 -39 -68 -55 l-52 -25 50 6 c44 5 55 2 99 -27 27
-18 72 -40 99 -49 l51 -17 18 36 c23 46 23 48 -12 101 -16 25 -30 49 -30 54 0
8 60 3 105 -9 15 -4 25 3 42 33 l22 39 -50 17 c-39 14 -55 27 -74 61 -22 36
-32 44 -66 49 -29 5 -43 12 -46 26 -6 22 -11 24 -33 10 -11 -7 -22 -2 -42 17
-26 25 -29 26 -84 14 -81 -16 -92 -14 -96 12 -3 18 -9 12 -38 -36z"/>
<path d="M8607 10990 c-14 -16 -27 -35 -29 -41 -3 -9 -9 -8 -24 1 -18 11 -27
10 -54 -4 -41 -20 -44 -20 -35 2 5 14 4 15 -6 5 -19 -19 -31 -16 -24 7 7 23
-3 25 -56 10 -30 -9 -40 -18 -57 -58 -29 -66 -12 -76 41 -24 23 23 45 42 48
42 3 0 4 -13 1 -30 -4 -29 -3 -30 32 -30 46 0 46 -12 -1 -34 -33 -16 -35 -19
-19 -28 20 -11 36 -9 144 20 72 20 111 48 112 82 0 21 -33 110 -41 110 -4 0
-18 -13 -32 -30z"/>
<path d="M8828 10973 c-25 -28 -32 -63 -14 -63 20 0 20 -13 1 -50 -11 -20 -23
-30 -39 -30 -13 0 -45 -10 -71 -21 -39 -17 -61 -20 -112 -16 -35 2 -63 1 -63
-4 0 -5 4 -9 10 -9 5 0 2 -16 -7 -35 -18 -38 -30 -44 -39 -20 -4 10 -20 15
-51 15 -39 0 -45 3 -41 18 5 17 0 19 -51 16 -98 -5 -124 -14 -168 -57 -24 -23
-43 -37 -43 -31 0 5 6 16 13 23 9 10 7 10 -11 0 -15 -9 -25 -28 -29 -54 -6
-35 -7 -37 -13 -15 -8 34 -47 36 -129 7 -62 -21 -65 -24 -104 -92 -22 -39 -40
-83 -40 -100 0 -16 -8 -42 -18 -57 -20 -28 -25 -53 -9 -43 17 10 11 -13 -15
-65 -29 -57 -33 -100 -9 -100 18 0 16 -11 -10 -72 -31 -71 -6 -38 40 54 25 50
52 97 59 104 7 8 15 19 17 26 4 10 10 10 32 0 15 -6 44 -12 65 -12 21 0 43 -6
48 -12 12 -18 31 -75 38 -123 10 -56 37 -145 46 -145 9 0 49 -94 49 -114 0 -9
-4 -16 -9 -16 -14 0 -19 -22 -31 -146 -11 -116 -11 -121 14 -204 15 -47 40
-104 57 -128 29 -40 79 -175 79 -215 0 -20 40 -101 64 -132 12 -15 12 -9 -3
26 -23 56 -61 188 -61 213 0 31 23 12 35 -30 6 -21 35 -84 63 -140 28 -55 58
-125 67 -155 29 -94 36 -108 69 -132 57 -43 122 -77 149 -77 24 0 112 -51 189
-110 14 -11 40 -44 57 -74 41 -74 90 -107 147 -99 40 5 44 4 64 -28 29 -47 23
-122 -18 -216 -33 -75 -42 -149 -20 -171 9 -9 8 -15 -7 -26 -21 -15 -27 4 69
-226 63 -150 81 -176 197 -277 l37 -32 8 -118 c10 -145 10 -390 0 -498 -6 -58
-4 -104 8 -170 20 -111 20 -115 1 -115 -23 0 -18 -14 14 -38 28 -20 29 -24 24
-81 -5 -53 -3 -61 13 -67 11 -4 33 -20 50 -36 l31 -29 44 84 43 84 -22 30
c-26 36 -28 59 -7 67 8 3 15 14 15 24 0 10 5 23 11 29 8 8 8 17 0 31 -17 32
-13 42 14 42 18 0 28 7 35 24 7 19 20 27 62 35 79 17 81 19 53 76 -13 28 -22
51 -20 53 2 2 20 -1 40 -8 54 -18 79 -7 120 56 42 63 65 128 63 180 -1 23 6
42 21 58 30 32 118 79 161 85 30 5 39 13 60 55 19 41 25 71 30 160 6 116 10
128 70 216 42 63 55 112 36 147 -34 66 -106 113 -193 128 -23 3 -71 24 -107
46 l-65 39 -52 -20 c-28 -12 -53 -19 -55 -17 -3 2 5 16 17 30 25 32 20 33 -31
7 -22 -11 -40 -18 -40 -15 0 3 14 24 30 47 36 50 37 56 5 117 -28 56 -62 87
-112 100 -25 7 -61 37 -122 101 l-86 91 -108 30 -108 29 -25 -30 c-34 -40 -44
-38 -37 7 5 29 3 35 -8 28 -46 -28 -70 -52 -83 -87 -18 -42 -22 -44 -52 -24
-11 8 -43 16 -70 18 l-49 3 -20 108 -20 108 -58 16 -58 16 6 86 c4 47 9 92 11
100 2 7 -16 -9 -41 -37 -77 -86 -145 -80 -188 16 -35 80 -24 254 20 298 13 13
32 15 90 12 70 -3 73 -2 73 19 0 45 78 58 125 21 15 -12 43 -54 61 -92 31 -65
33 -68 34 -37 0 18 -7 60 -16 93 -20 78 -13 105 47 184 58 76 64 89 74 172 7
59 8 62 24 48 16 -14 22 -10 79 53 34 38 62 78 62 89 0 67 33 99 132 129 57
16 69 12 43 -17 -34 -38 -8 -30 55 15 34 26 60 49 57 51 -3 3 -17 -2 -31 -11
-24 -16 -27 -16 -71 16 -25 18 -45 37 -45 43 0 5 10 20 22 34 l23 23 -28 -10
c-15 -6 -39 -17 -55 -25 -73 -37 -90 -29 -46 23 35 42 146 94 272 127 91 24
102 30 102 50 0 48 -9 55 -64 49 l-51 -6 33 29 c36 32 34 36 -27 67 -26 13
-41 33 -68 93 -20 42 -37 79 -39 81 -2 3 -14 -5 -27 -16 -73 -67 -137 -51
-122 31 l7 33 -88 22 c-54 14 -91 18 -96 13 -18 -18 -39 -171 -29 -208 10 -34
7 -51 -23 -129 -8 -22 -15 -55 -16 -73 0 -40 -25 -92 -44 -92 -34 0 -56 35
-63 98 -5 57 -8 63 -32 68 -50 10 -165 69 -193 99 -42 45 -44 68 -13 122 47
81 102 150 140 173 33 20 35 24 20 39 -18 21 -11 31 22 31 30 0 39 -22 25 -66
-11 -38 -8 -40 28 -19 14 8 38 14 55 15 l29 0 -48 49 -49 50 56 27 57 28 0 53
c0 52 -1 53 -29 53 -22 0 -31 -6 -41 -29 -6 -16 -24 -41 -40 -56 l-29 -28 -7
41 c-7 45 -14 51 -34 27 -20 -24 -32 -13 -49 40 -18 55 -30 64 -53 38z"/>
<path d="M15246 9613 c-3 -3 -6 -17 -6 -29 0 -13 -4 -26 -10 -29 -5 -3 -10
-15 -10 -26 0 -21 -47 -79 -65 -79 -5 0 -23 -12 -38 -25 -27 -24 -28 -28 -22
-80 4 -30 10 -55 14 -55 11 0 55 84 52 100 -2 12 0 12 15 -2 15 -15 20 -15 49
-1 30 15 33 19 39 82 3 36 6 83 6 103 0 36 -11 54 -24 41z"/>
<path d="M14813 8401 c-15 -22 -52 -66 -80 -99 l-53 -59 56 -62 c31 -33 59
-61 64 -61 4 0 11 17 15 37 4 20 17 58 31 84 20 40 22 52 13 77 -8 24 -7 37 6
62 13 25 14 35 4 46 -17 21 -25 18 -56 -25z"/>
<path d="M15103 8229 c9 -5 17 -21 17 -34 0 -14 8 -29 20 -35 16 -8 20 -21 20
-59 0 -44 3 -49 26 -55 17 -5 33 -1 51 13 l25 21 17 -21 c16 -20 17 -19 11 32
-5 51 -7 55 -60 92 l-55 38 -17 -21 c-19 -23 -17 -25 -33 25 -2 8 -12 15 -22
15 -17 -1 -17 -1 0 -11z"/>
<path d="M15180 7855 c-17 -52 -35 -95 -40 -95 -5 0 -18 13 -29 28 -19 27 -19
32 -5 77 7 27 13 50 11 51 -2 2 -14 5 -28 6 -20 3 -29 -6 -57 -61 -18 -36 -34
-66 -36 -68 -2 -2 -14 1 -28 6 -24 9 -27 6 -48 -40 -13 -27 -29 -49 -35 -49
-7 0 -20 -18 -30 -41 -10 -22 -37 -54 -59 -71 -94 -72 -116 -99 -116 -143 0
-23 -7 -50 -15 -61 -21 -28 -22 -254 0 -254 18 0 103 58 160 110 22 19 55 42
72 49 31 12 34 12 53 -10 l20 -24 18 23 c18 23 18 23 20 -35 1 -31 4 -58 6
-60 9 -9 67 32 89 65 53 76 156 359 141 384 -16 26 -25 107 -24 206 1 56 -1
102 -3 102 -3 0 -20 -43 -37 -95z"/>
<path d="M13055 7611 c-9 -18 -38 -48 -66 -67 -58 -42 -69 -59 -69 -111 -1
-21 -7 -56 -15 -78 -27 -74 -13 -165 25 -165 33 0 69 40 85 93 16 53 66 349
60 355 -2 2 -11 -10 -20 -27z"/>
</g>
</svg>
